<svg width="73" height="73" viewBox="0 0 73 73" fill="none" xmlns="http://www.w3.org/2000/svg">
<path d="M36.4987 12.1654C49.9155 12.1654 60.832 23.0819 60.832 36.4987C60.832 49.9155 49.9155 60.832 36.4987 60.832C23.0819 60.832 12.1654 49.9155 12.1654 36.4987C12.1654 23.0819 23.0819 12.1654 36.4987 12.1654ZM36.4987 6.08203C19.6996 6.08203 6.08203 19.6996 6.08203 36.4987C6.08203 53.2978 19.6996 66.9154 36.4987 66.9154C53.2978 66.9154 66.9154 53.2978 66.9154 36.4987C66.9154 19.6996 53.2978 6.08203 36.4987 6.08203ZM51.707 33.457H39.5404V21.2904H33.457V33.457H21.2904V39.5404H33.457V51.707H39.5404V39.5404H51.707V33.457Z" fill="#00345B"/>
</svg>
