<svg width="17" height="18" viewBox="0 0 17 18" fill="none" xmlns="http://www.w3.org/2000/svg">
<path d="M1.9987 17.3346C1.54036 17.3346 1.14814 17.1716 0.822031 16.8455C0.495364 16.5188 0.332031 16.1263 0.332031 15.668V2.33464C0.332031 1.8763 0.495364 1.4838 0.822031 1.15714C1.14814 0.831024 1.54036 0.667969 1.9987 0.667969H7.97786C8.20009 0.667969 8.41203 0.709635 8.6137 0.792969C8.81481 0.876302 8.99175 0.994358 9.14453 1.14714L13.1862 5.1888C13.339 5.34158 13.457 5.51852 13.5404 5.71964C13.6237 5.9213 13.6654 6.13325 13.6654 6.35547V9.0013H11.9987V6.5013H8.66536C8.42925 6.5013 8.23148 6.4213 8.07203 6.2613C7.91203 6.10186 7.83203 5.90408 7.83203 5.66797V2.33464H1.9987V15.668H6.9987V17.3346H1.9987ZM1.9987 15.668V2.33464V15.668ZM12.2487 11.1055L13.1445 12.0013L9.91536 15.2096V16.0846H10.7904L14.0195 12.8763L14.8945 13.7513L11.5612 17.0846C11.4779 17.168 11.384 17.2305 11.2795 17.2721C11.1756 17.3138 11.0681 17.3346 10.957 17.3346H9.08203C8.97092 17.3346 8.8737 17.293 8.79036 17.2096C8.70703 17.1263 8.66536 17.0291 8.66536 16.918V15.043C8.66536 14.9319 8.6862 14.8244 8.72786 14.7205C8.76953 14.616 8.83203 14.5221 8.91536 14.4388L12.2487 11.1055ZM14.8945 13.7513L12.2487 11.1055L13.457 9.89713C13.6098 9.74436 13.8043 9.66797 14.0404 9.66797C14.2765 9.66797 14.4709 9.74436 14.6237 9.89713L16.1029 11.3763C16.2556 11.5291 16.332 11.7235 16.332 11.9596C16.332 12.1957 16.2556 12.3902 16.1029 12.543L14.8945 13.7513Z" fill="white"/>
</svg>
