<svg width="40" height="48" viewBox="0 0 40 48" fill="none" xmlns="http://www.w3.org/2000/svg">
<path d="M32.4808 46.0434C30.0297 48.5237 27.3254 48.1373 24.7477 46.9676C22.0071 45.7746 19.5018 45.6993 16.6075 46.9676C13.0032 48.5899 11.0903 48.1183 8.91955 46.0434C-3.33593 32.887 -1.527 12.8458 12.4017 12.0913C15.7799 12.2799 18.1451 14.0388 20.1349 14.185C23.0925 13.5578 25.9235 11.7612 29.0891 11.997C32.8922 12.3176 35.7369 13.8832 37.6363 16.6984C29.8127 21.6026 31.6668 32.3541 38.8529 35.3722C37.4145 39.3097 35.5695 43.2 32.4764 46.0765L32.4808 46.0434ZM19.8636 11.9498C19.4973 6.10249 24.0422 1.2926 29.27 0.821045C29.989 7.56432 23.391 12.61 19.8636 11.9498Z" fill="black"/>
</svg>
