<svg width="15" height="10" viewBox="0 0 15 10" fill="none" xmlns="http://www.w3.org/2000/svg">
<path d="M14.1998 8.6002V1.4002C14.1998 0.736195 13.6638 0.200195 12.9998 0.200195H1.7918C1.1278 0.200195 0.591797 0.736195 0.591797 1.4002V8.6002C0.591797 9.2642 1.1278 9.8002 1.7918 9.8002H12.9998C13.6638 9.8002 14.1998 9.2642 14.1998 8.6002ZM13.1518 1.3122C13.4158 1.5762 13.2718 1.8482 13.1278 1.9842L9.8798 4.9602L12.9998 8.2082C13.0958 8.3202 13.1598 8.4962 13.0478 8.6162C12.9438 8.7442 12.7038 8.7362 12.5998 8.6562L9.1038 5.6722L7.3918 7.2322L5.6878 5.6722L2.1918 8.6562C2.0878 8.7362 1.8478 8.7442 1.7438 8.6162C1.6318 8.4962 1.6958 8.3202 1.7918 8.2082L4.9118 4.9602L1.6638 1.9842C1.5198 1.8482 1.3758 1.5762 1.6398 1.3122C1.9038 1.0482 2.1758 1.1762 2.3998 1.3682L7.3918 5.4002L12.3918 1.3682C12.6158 1.1762 12.8878 1.0482 13.1518 1.3122Z" fill="#755852"/>
</svg>
