<svg width="14" height="14" viewBox="0 0 14 14" fill="none" xmlns="http://www.w3.org/2000/svg">
<path d="M8.27563 1.30603C8.32705 1.11393 8.45266 0.950127 8.62483 0.850622C8.797 0.751117 9.00164 0.724061 9.19376 0.775402C10.1634 1.028 11.0481 1.53469 11.7566 2.2432C12.4651 2.95171 12.9718 3.8364 13.2244 4.80603C13.2522 4.90188 13.2605 5.00232 13.249 5.10145C13.2375 5.20058 13.2063 5.29642 13.1572 5.38334C13.1082 5.47026 13.0423 5.54651 12.9634 5.60764C12.8845 5.66877 12.7942 5.71354 12.6978 5.73933C12.6014 5.76512 12.5008 5.7714 12.4019 5.75782C12.3031 5.74424 12.2079 5.71106 12.122 5.66022C12.0361 5.60939 11.9613 5.54193 11.9018 5.46179C11.8423 5.38166 11.7994 5.29045 11.7756 5.19353C11.5894 4.47928 11.216 3.82762 10.6941 3.30568C10.1722 2.78375 9.5205 2.41041 8.80625 2.22415C8.61416 2.17273 8.45035 2.04712 8.35085 1.87495C8.25134 1.70278 8.22429 1.49814 8.27563 1.30603ZM13.7406 9.97353C13.6214 10.8808 13.1761 11.7137 12.4877 12.3166C11.7994 12.9195 10.9151 13.2512 10 13.2498C4.89938 13.2498 0.750005 9.1004 0.750005 3.99978C0.748586 3.08471 1.08031 2.20042 1.68322 1.51206C2.28612 0.823698 3.11899 0.378335 4.02625 0.259152C4.29358 0.226668 4.56425 0.281163 4.79818 0.414562C5.03211 0.547961 5.21684 0.753167 5.325 0.999777L6.64438 3.9454C6.64578 3.94926 6.64745 3.95302 6.64938 3.95665C6.73046 4.14616 6.76342 4.35279 6.74532 4.55812C6.72722 4.76345 6.65862 4.96112 6.54563 5.13353C6.52955 5.15865 6.5118 5.18266 6.4925 5.2054L5.30125 6.62478C5.7425 7.42728 6.5825 8.25978 7.39438 8.7004L8.78875 7.5129C8.81113 7.49417 8.8345 7.47664 8.85876 7.4604C9.03176 7.34431 9.23115 7.27352 9.43863 7.25452C9.64611 7.23552 9.85504 7.26892 10.0463 7.35165L10.0575 7.35665L13 8.67478C13.2466 8.78303 13.4517 8.96777 13.5851 9.20168C13.7185 9.43558 13.773 9.70622 13.7406 9.97353ZM12.2213 9.96978L9.59625 8.79415L8.19438 9.98603C8.17234 10.0051 8.14917 10.0229 8.125 10.0392C7.9448 10.1586 7.73669 10.2293 7.52099 10.2443C7.30529 10.2594 7.08939 10.2182 6.89438 10.1248C5.67688 9.53728 4.46375 8.33228 3.875 7.12478C3.78138 6.93064 3.73954 6.71559 3.75356 6.5005C3.76758 6.28542 3.83697 6.07762 3.955 5.89728C3.9713 5.87215 3.98926 5.84814 4.00875 5.8254L5.20625 4.4054L4.03 1.7804C3.52463 1.89177 3.07254 2.17261 2.74877 2.57631C2.42499 2.98 2.249 3.48228 2.25 3.99978C2.25249 6.05444 3.0698 8.02424 4.52267 9.47711C5.97554 10.93 7.94534 11.7473 10 11.7498C10.5178 11.7512 11.0205 11.5754 11.4246 11.2516C11.8287 10.9278 12.1098 10.4755 12.2213 9.96978ZM8.10188 4.59165C8.40859 4.68833 8.68746 4.85753 8.91486 5.08493C9.14225 5.31232 9.31146 5.59119 9.40813 5.8979C9.45599 6.05007 9.55112 6.18302 9.6797 6.27744C9.80828 6.37185 9.96361 6.4228 10.1231 6.4229C10.1996 6.42281 10.2757 6.41122 10.3488 6.38853C10.5377 6.32873 10.6954 6.19655 10.7872 6.02088C10.879 5.8452 10.8975 5.64033 10.8388 5.45103C10.6696 4.91401 10.3734 4.42572 9.9753 4.02761C9.57718 3.62949 9.0889 3.33329 8.55188 3.16415C8.45737 3.13244 8.35748 3.11988 8.25806 3.12723C8.15864 3.13457 8.06168 3.16165 7.97285 3.2069C7.88403 3.25215 7.80511 3.31466 7.74072 3.39077C7.67633 3.46687 7.62776 3.55505 7.59785 3.65015C7.56793 3.74525 7.55728 3.84535 7.56651 3.94461C7.57574 4.04388 7.60466 4.1403 7.65159 4.22826C7.69852 4.31621 7.76251 4.39392 7.83983 4.45686C7.91714 4.51979 8.00623 4.56668 8.10188 4.59478V4.59165Z" fill="#00345B"/>
</svg>
