<svg width="15" height="15" viewBox="0 0 15 15" fill="none" xmlns="http://www.w3.org/2000/svg">
<path d="M9.99967 6.82634C9.99967 6.43301 9.95301 6.05301 9.90634 5.66634H12.1597C12.213 5.88634 12.2597 6.11301 12.2863 6.33301C12.7663 6.37967 13.2263 6.48634 13.6663 6.66634C13.473 3.13967 10.5663 0.333008 6.99967 0.333008C3.31301 0.333008 0.333008 3.33301 0.333008 6.99967C0.333008 10.6663 3.33301 13.6663 6.99967 13.6663C7.57967 13.6663 8.13967 13.5863 8.66634 13.4463C8.12416 12.7861 7.78595 11.9823 7.69301 11.133C7.48634 11.5397 7.25967 11.933 6.99967 12.3063C6.44634 11.5063 5.99967 10.6197 5.72634 9.66634H7.78634C7.89967 9.18634 8.09301 8.73967 8.35301 8.33301H5.43967C5.37301 7.89301 5.33301 7.45301 5.33301 6.99967C5.33301 6.54634 5.37301 6.09967 5.43967 5.66634H8.55968C8.61967 6.09967 8.66634 6.54634 8.66634 6.99967C8.66634 7.33301 8.63967 7.66634 8.59967 7.99967C8.97555 7.51149 9.4533 7.11109 9.99967 6.82634ZM1.83967 8.33301C1.73301 7.90634 1.66634 7.45967 1.66634 6.99967C1.66634 6.53967 1.73301 6.09301 1.83967 5.66634H4.09301C4.03967 6.10634 3.99967 6.54634 3.99967 6.99967C3.99967 7.45301 4.03967 7.89301 4.09301 8.33301H1.83967ZM2.38634 9.66634H4.33301C4.56634 10.4997 4.86634 11.2997 5.26634 12.0397C4.05209 11.6208 3.02957 10.7782 2.38634 9.66634ZM4.33301 4.33301H2.38634C3.02558 3.21782 4.04954 2.374 5.26634 1.95967C4.86634 2.69967 4.56634 3.49967 4.33301 4.33301ZM5.72634 4.33301C5.99967 3.37967 6.44634 2.48634 6.99967 1.68634C7.55301 2.48634 7.99967 3.37967 8.27301 4.33301H5.72634ZM11.613 4.33301H9.64634C9.43769 3.50731 9.12872 2.71027 8.72634 1.95967C9.95301 2.37967 10.973 3.22634 11.613 4.33301ZM14.333 10.6663C14.333 11.213 14.1663 11.7197 13.8863 12.1397L13.1597 11.413C13.273 11.1863 13.333 10.933 13.333 10.6663C13.333 10.2243 13.1574 9.80039 12.8449 9.48783C12.5323 9.17527 12.1084 8.99967 11.6663 8.99967V9.99967L10.1663 8.49967L11.6663 6.99967V7.99967C13.1397 7.99967 14.333 9.19301 14.333 10.6663ZM11.6663 11.333L13.1663 12.833L11.6663 14.333V13.333C10.193 13.333 8.99967 12.1397 8.99967 10.6663C8.99967 10.1197 9.16634 9.61301 9.44634 9.19301L10.173 9.91967C10.0597 10.1463 9.99967 10.3997 9.99967 10.6663C9.99967 11.1084 10.1753 11.5323 10.4878 11.8449C10.8004 12.1574 11.2243 12.333 11.6663 12.333V11.333Z" fill="#690136"/>
</svg>
