<svg width="112" height="29" viewBox="0 0 112 29" fill="none" xmlns="http://www.w3.org/2000/svg">
<path d="M0.5 3.72939C6.8348 9.93063 11.8384 12.5557 19.9653 12.1149C27.3045 11.7169 35.2878 7.46356 42.1137 4.36416C50.5648 0.526827 67.1539 -2.47227 72.0646 9.7429C75.8776 19.2277 70.1625 30.5695 61.1684 27.4827C57.701 26.2927 55.9092 20.6441 57.4451 16.7252C59.1039 12.4926 64.063 10.4521 67.4926 9.47563C76.7032 6.85309 82.8395 17.3817 91.174 19.2309C98.9607 20.9585 104.743 16.7021 110.639 10.9456C111.144 10.4525 110.886 13.7332 110.886 14.5537C110.886 17.5617 111.379 16.2267 111.379 13.9524C111.379 12.4897 112.01 9.37978 110.393 10.2106C109.226 10.81 106.774 10.9456 105.465 10.9456" stroke="#00345B" stroke-width="0.256561" stroke-linecap="round"/>
</svg>
