<svg width="24" height="24" viewBox="0 0 24 24" fill="none" xmlns="http://www.w3.org/2000/svg">
<path d="M13.25 7V2C13.25 1.64584 13.37 1.34875 13.61 1.10875C13.85 0.868754 14.1467 0.749171 14.5 0.750004H22C22.3542 0.750004 22.6513 0.870004 22.8913 1.11C23.1313 1.35 23.2508 1.64667 23.25 2V7C23.25 7.35417 23.13 7.65125 22.89 7.89125C22.65 8.13125 22.3533 8.25084 22 8.25H14.5C14.1458 8.25 13.8488 8.13 13.6088 7.89C13.3688 7.65 13.2492 7.35334 13.25 7ZM0.750004 12V2C0.750004 1.64584 0.870004 1.34875 1.11 1.10875C1.35 0.868754 1.64667 0.749171 2 0.750004H9.5C9.85417 0.750004 10.1513 0.870004 10.3913 1.11C10.6313 1.35 10.7508 1.64667 10.75 2V12C10.75 12.3542 10.63 12.6513 10.39 12.8913C10.15 13.1313 9.85334 13.2508 9.5 13.25H2C1.64584 13.25 1.34875 13.13 1.10875 12.89C0.868754 12.65 0.749171 12.3533 0.750004 12ZM13.25 22V12C13.25 11.6458 13.37 11.3488 13.61 11.1088C13.85 10.8688 14.1467 10.7492 14.5 10.75H22C22.3542 10.75 22.6513 10.87 22.8913 11.11C23.1313 11.35 23.2508 11.6467 23.25 12V22C23.25 22.3542 23.13 22.6513 22.89 22.8913C22.65 23.1313 22.3533 23.2508 22 23.25H14.5C14.1458 23.25 13.8488 23.13 13.6088 22.89C13.3688 22.65 13.2492 22.3533 13.25 22ZM0.750004 22V17C0.750004 16.6458 0.870004 16.3488 1.11 16.1088C1.35 15.8688 1.64667 15.7492 2 15.75H9.5C9.85417 15.75 10.1513 15.87 10.3913 16.11C10.6313 16.35 10.7508 16.6467 10.75 17V22C10.75 22.3542 10.63 22.6513 10.39 22.8913C10.15 23.1313 9.85334 23.2508 9.5 23.25H2C1.64584 23.25 1.34875 23.13 1.10875 22.89C0.868754 22.65 0.749171 22.3533 0.750004 22ZM3.25 10.75H8.25V3.25H3.25V10.75ZM15.75 20.75H20.75V13.25H15.75V20.75ZM15.75 5.75H20.75V3.25H15.75V5.75ZM3.25 20.75H8.25V18.25H3.25V20.75Z" fill="#00345B"/>
</svg>
