<svg width="12" height="12" viewBox="0 0 12 12" fill="none" xmlns="http://www.w3.org/2000/svg">
<path d="M8.616 7.2C8.664 6.804 8.7 6.408 8.7 6C8.7 5.592 8.664 5.196 8.616 4.8H10.644C10.74 5.184 10.8 5.586 10.8 6C10.8 6.414 10.74 6.816 10.644 7.2M7.554 10.536C7.914 9.87 8.19 9.15 8.382 8.4H10.152C9.5707 9.40097 8.64847 10.1592 7.554 10.536ZM7.404 7.2H4.596C4.536 6.804 4.5 6.408 4.5 6C4.5 5.592 4.536 5.19 4.596 4.8H7.404C7.458 5.19 7.5 5.592 7.5 6C7.5 6.408 7.458 6.804 7.404 7.2ZM6 10.776C5.502 10.056 5.1 9.258 4.854 8.4H7.146C6.9 9.258 6.498 10.056 6 10.776ZM3.6 3.6H1.848C2.42331 2.59633 3.34488 1.83689 4.44 1.464C4.08 2.13 3.81 2.85 3.6 3.6ZM1.848 8.4H3.6C3.81 9.15 4.08 9.87 4.44 10.536C3.34717 10.159 2.42691 9.40063 1.848 8.4ZM1.356 7.2C1.26 6.816 1.2 6.414 1.2 6C1.2 5.586 1.26 5.184 1.356 4.8H3.384C3.336 5.196 3.3 5.592 3.3 6C3.3 6.408 3.336 6.804 3.384 7.2M6 1.218C6.498 1.938 6.9 2.742 7.146 3.6H4.854C5.1 2.742 5.502 1.938 6 1.218ZM10.152 3.6H8.382C8.19421 2.85687 7.91614 2.13954 7.554 1.464C8.658 1.842 9.576 2.604 10.152 3.6ZM6 0C2.682 0 0 2.7 0 6C0 7.5913 0.632141 9.11742 1.75736 10.2426C2.31451 10.7998 2.97595 11.2417 3.7039 11.5433C4.43185 11.8448 5.21207 12 6 12C7.5913 12 9.11742 11.3679 10.2426 10.2426C11.3679 9.11742 12 7.5913 12 6C12 5.21207 11.8448 4.43185 11.5433 3.7039C11.2417 2.97595 10.7998 2.31451 10.2426 1.75736C9.68549 1.20021 9.02405 0.758251 8.2961 0.456723C7.56815 0.155195 6.78793 0 6 0Z" fill="black"/>
</svg>
