<svg width="44" height="43" viewBox="0 0 44 43" fill="none" xmlns="http://www.w3.org/2000/svg">
<path d="M43.4775 22.0525C43.4775 20.6 43.358 19.1396 43.1031 17.7107H22.6649V25.9389H34.3689C33.8832 28.5927 32.3228 30.9403 30.0377 32.4319V37.7708H37.0203C41.1207 34.0493 43.4775 28.5534 43.4775 22.0525Z" fill="#4285F4"/>
<path d="M22.6656 42.929C28.5096 42.929 33.4381 41.0368 37.0288 37.7705L30.0463 32.4316C28.1036 33.735 25.5956 34.4731 22.6735 34.4731C17.0206 34.4731 12.2275 30.7121 10.5077 25.656H3.30212V31.1597C6.98055 38.3753 14.4727 42.929 22.6656 42.929Z" fill="#34A853"/>
<path d="M10.4993 25.6566C9.59161 23.0028 9.59161 20.1292 10.4993 17.4755V11.9717H3.30169C0.228377 18.0094 0.228377 25.1227 3.30169 31.1603L10.4993 25.6566Z" fill="#FBBC04"/>
<path d="M22.6656 8.65022C25.7548 8.60312 28.7405 9.7494 30.9778 11.8536L37.1642 5.75306C33.247 2.12575 28.0478 0.1315 22.6656 0.194311C14.4727 0.194311 6.98055 4.7481 3.30212 11.9713L10.4997 17.4752C12.2115 12.411 17.0126 8.65022 22.6656 8.65022Z" fill="#EA4335"/>
</svg>
