<svg width="20" height="20" viewBox="0 0 20 20" fill="none" xmlns="http://www.w3.org/2000/svg">
<path d="M1.18644 8.08498H3.38983V15.3191H1.86441C1.72955 15.3191 1.60022 15.3863 1.50486 15.5061C1.4095 15.6258 1.35593 15.7881 1.35593 15.9574C1.35593 16.1267 1.4095 16.289 1.50486 16.4088C1.60022 16.5285 1.72955 16.5957 1.86441 16.5957H18.1356C18.2704 16.5957 18.3998 16.5285 18.4951 16.4088C18.5905 16.289 18.6441 16.1267 18.6441 15.9574C18.6441 15.7881 18.5905 15.6258 18.4951 15.5061C18.3998 15.3863 18.2704 15.3191 18.1356 15.3191H16.6102V8.08498H18.8136C18.9237 8.08359 19.0305 8.03735 19.1179 7.9532C19.2053 7.86906 19.2686 7.75157 19.2982 7.6184C19.3278 7.48523 19.3222 7.34359 19.2822 7.21477C19.2422 7.08596 19.1699 6.97694 19.0763 6.90411L10.2627 0.0955286C10.1841 0.0331254 10.093 0 10 0C9.90699 0 9.8159 0.0331254 9.73729 0.0955286L0.923729 6.90411C0.830102 6.97694 0.757844 7.08596 0.717823 7.21477C0.677802 7.34359 0.672182 7.48523 0.701809 7.6184C0.731436 7.75157 0.794707 7.86906 0.882105 7.9532C0.969504 8.03735 1.0763 8.08359 1.18644 8.08498ZM4.40678 8.08498H7.45763V15.3191H4.40678V8.08498ZM11.5254 8.08498V15.3191H8.47458V8.08498H11.5254ZM15.5932 15.3191H12.5424V8.08498H15.5932V15.3191ZM10 1.38278L17.017 6.80837H2.98305L10 1.38278ZM20 19.3617C20 19.531 19.9464 19.6933 19.8511 19.813C19.7557 19.9328 19.6264 20 19.4915 20H0.508475C0.373619 20 0.244286 19.9328 0.148929 19.813C0.0535713 19.6933 0 19.531 0 19.3617C0 19.1924 0.0535713 19.0301 0.148929 18.9103C0.244286 18.7906 0.373619 18.7234 0.508475 18.7234H19.4915C19.6264 18.7234 19.7557 18.7906 19.8511 18.9103C19.9464 19.0301 20 19.1924 20 19.3617Z" fill="white"/>
</svg>
