<svg width="38" height="38" viewBox="0 0 38 38" fill="none" xmlns="http://www.w3.org/2000/svg">
<g id="gridicons:create">
<path id="Vector" d="M32.6562 22.1113L32.6562 29.6504C32.6562 30.4502 32.3385 31.2172 31.773 31.7828C31.2074 32.3483 30.4404 32.666 29.6406 32.666L8.53125 32.666C7.73146 32.666 6.96442 32.3483 6.39888 31.7828C5.83334 31.2172 5.51562 30.4502 5.51562 29.6504L5.51562 8.54102C5.51562 7.74122 5.83334 6.97419 6.39888 6.40865C6.96442 5.84311 7.73146 5.52539 8.53125 5.52539L16.0703 5.52539L16.0703 8.54102L8.53125 8.54102L8.53125 29.6504L29.6406 29.6504L29.6406 22.1113L32.6562 22.1113Z" fill="#00345B"/>
<path id="Vector_2" d="M32.6641 11.5566L26.6328 11.5566L26.6328 5.52539L23.6172 5.52539L23.6172 11.5566L17.5859 11.5566L17.5859 14.5723L23.6172 14.5723L23.6172 20.6035L26.6328 20.6035L26.6328 14.5723L32.6641 14.5723L32.6641 11.5566Z" fill="#00345B"/>
</g>
</svg>
