<svg width="69" height="58" viewBox="0 0 69 58" fill="none" xmlns="http://www.w3.org/2000/svg">
<path d="M64.6766 54.256C64.8227 54.2576 64.9671 54.229 65.1015 54.1722C65.2359 54.1154 65.357 54.0316 65.4576 53.9261C65.5582 53.8202 65.6363 53.6953 65.6866 53.558C65.7369 53.421 65.7582 53.2752 65.7498 53.1294C65.7498 52.3303 65.2685 51.9485 64.2803 51.9485H62.6837V56.1321H63.2845V54.3084H64.022L64.0389 54.3309L65.184 56.1321H65.8262L64.5942 54.2677L64.6766 54.256ZM63.9822 53.8371H63.2861V52.423H64.1685C64.6243 52.423 65.1442 52.4975 65.1442 53.0948C65.1442 53.7819 64.6183 53.8371 63.9785 53.8371" fill="#0A66C2"/>
<path d="M49.0131 49.0135H40.4982V35.6655C40.4982 32.4826 40.4415 28.3851 36.0698 28.3851C31.6351 28.3851 30.9566 31.8531 30.9566 35.4337V49.0127H22.4418V21.5637H30.6159V25.3149H30.7304C31.5484 23.9148 32.7305 22.763 34.1507 21.9822C35.571 21.2013 37.1762 20.8208 38.7954 20.8809C47.4254 20.8809 49.0168 26.5632 49.0168 33.9555L49.0131 49.0135ZM12.8344 17.8116C11.8572 17.8118 10.9017 17.5219 10.0891 16.9785C9.27638 16.4352 8.64297 15.6628 8.26881 14.759C7.89469 13.8553 7.79664 12.8608 7.98712 11.9013C8.1776 10.9418 8.64805 10.0604 9.33899 9.3685C10.0299 8.67661 10.9102 8.2054 11.8687 8.01436C12.8272 7.82333 13.8207 7.92112 14.7236 8.2953C15.6266 8.66952 16.3984 9.30333 16.9415 10.1167C17.4846 10.93 17.7746 11.8862 17.7747 12.8645C17.7749 13.5141 17.6471 14.1573 17.3989 14.7574C17.1507 15.3576 16.7869 15.9029 16.3281 16.3623C15.8694 16.8217 15.3247 17.1861 14.7252 17.4348C14.1258 17.6834 13.4833 17.8115 12.8344 17.8116ZM17.0918 49.0135H8.56822V21.5637H17.0918V49.0135ZM53.2581 0.00391914H4.28957C3.17814 -0.00863631 2.10712 0.421029 1.31199 1.1985C0.516854 1.97597 0.0626369 3.03763 0.0490723 4.1502V53.372C0.0621726 54.4853 0.516122 55.5474 1.31123 56.326C2.10634 57.1041 3.17759 57.5347 4.28957 57.5226H53.2581C54.3723 57.5367 55.4466 57.1073 56.2449 56.3292C57.0428 55.551 57.4999 54.4873 57.5155 53.372V4.14665C57.4995 3.03187 57.042 1.969 56.2441 1.19155C55.4458 0.414101 54.3719 -0.0143363 53.2581 0.000366283" fill="#0A66C2"/>
<path d="M64.0551 50.085C63.0194 50.095 62.0292 50.5151 61.3021 51.2538C60.5746 51.9925 60.1694 52.9894 60.1742 54.0265C60.1795 55.0633 60.5943 56.0561 61.3286 56.7876C62.0629 57.5194 63.0568 57.9299 64.0929 57.9299C65.129 57.9299 66.1224 57.5194 66.8567 56.7876C67.5911 56.0561 68.0063 55.0633 68.0111 54.0265C68.0164 52.9894 67.6108 51.9925 66.8837 51.2538C66.1562 50.5151 65.1664 50.095 64.1303 50.085H64.0551ZM64.0551 57.4808C63.3755 57.4924 62.7079 57.3015 62.137 56.933C61.5656 56.5649 61.1162 56.0348 60.8458 55.4109C60.5754 54.7866 60.4957 54.0962 60.6172 53.4272C60.7388 52.7578 61.0558 52.1395 61.5282 51.6506C62.0006 51.1616 62.6073 50.8237 63.2717 50.6799C63.936 50.5361 64.6276 50.5929 65.2598 50.8426C65.8919 51.0923 66.4359 51.5245 66.8225 52.0835C67.2096 52.643 67.4221 53.3044 67.4333 53.9847C67.4333 54.004 67.4333 54.0229 67.4333 54.0423C67.4527 54.9344 67.1167 55.798 66.4998 56.4424C65.8834 57.0869 65.036 57.4598 64.1448 57.4792H64.0559" fill="#0A66C2"/>
</svg>
