<svg width="10" height="14" viewBox="0 0 10 14" fill="none" xmlns="http://www.w3.org/2000/svg">
<path d="M4.99967 3.33301C5.4417 3.33301 5.86562 3.5086 6.17819 3.82116C6.49075 4.13372 6.66634 4.55765 6.66634 4.99967C6.66634 5.21854 6.62323 5.43527 6.53947 5.63748C6.45572 5.83969 6.33295 6.02342 6.17819 6.17819C6.02342 6.33295 5.83969 6.45572 5.63748 6.53947C5.43527 6.62323 5.21854 6.66634 4.99967 6.66634C4.55765 6.66634 4.13372 6.49075 3.82116 6.17819C3.5086 5.86562 3.33301 5.4417 3.33301 4.99967C3.33301 4.55765 3.5086 4.13372 3.82116 3.82116C4.13372 3.5086 4.55765 3.33301 4.99967 3.33301ZM4.99967 0.333008C6.23735 0.333008 7.42434 0.824673 8.29951 1.69984C9.17467 2.57501 9.66634 3.762 9.66634 4.99967C9.66634 8.49967 4.99967 13.6663 4.99967 13.6663C4.99967 13.6663 0.333008 8.49967 0.333008 4.99967C0.333008 3.762 0.824673 2.57501 1.69984 1.69984C2.57501 0.824673 3.762 0.333008 4.99967 0.333008ZM4.99967 1.66634C4.11562 1.66634 3.26777 2.01753 2.64265 2.64265C2.01753 3.26777 1.66634 4.11562 1.66634 4.99967C1.66634 5.66634 1.66634 6.99967 4.99967 11.473C8.33301 6.99967 8.33301 5.66634 8.33301 4.99967C8.33301 4.11562 7.98182 3.26777 7.3567 2.64265C6.73158 2.01753 5.88373 1.66634 4.99967 1.66634Z" fill="#00345B"/>
</svg>
