<svg width="12" height="14" viewBox="0 0 12 14" fill="none" xmlns="http://www.w3.org/2000/svg">
<path d="M5.99984 6.99967C6.3665 6.99967 6.6805 6.86901 6.94184 6.60767C7.20317 6.34634 7.33361 6.03256 7.33317 5.66634C7.33317 5.29967 7.2025 4.98567 6.94117 4.72434C6.67984 4.46301 6.36606 4.33256 5.99984 4.33301C5.63317 4.33301 5.31917 4.46367 5.05784 4.72501C4.7965 4.98634 4.66606 5.30012 4.6665 5.66634C4.6665 6.03301 4.79717 6.34701 5.0585 6.60834C5.31984 6.86967 5.63361 7.00012 5.99984 6.99967ZM5.99984 11.8997C7.35539 10.6552 8.36095 9.52456 9.0165 8.50767C9.67206 7.49079 9.99984 6.58812 9.99984 5.79967C9.99984 4.58856 9.61361 3.59701 8.84117 2.82501C8.06873 2.05301 7.12161 1.66679 5.99984 1.66634C4.87761 1.66634 3.93028 2.05256 3.15784 2.82501C2.38539 3.59745 1.99939 4.58901 1.99984 5.79967C1.99984 6.58856 2.32761 7.49145 2.98317 8.50834C3.63873 9.52523 4.64428 10.6557 5.99984 11.8997ZM5.99984 13.6663C4.21095 12.1441 2.87495 10.7303 1.99184 9.42501C1.10873 8.11967 0.666948 6.91123 0.666504 5.79967C0.666504 4.13301 1.20273 2.80523 2.27517 1.81634C3.34762 0.827452 4.58917 0.333008 5.99984 0.333008C7.41095 0.333008 8.65273 0.827452 9.72517 1.81634C10.7976 2.80523 11.3336 4.13301 11.3332 5.79967C11.3332 6.91079 10.8914 8.11923 10.0078 9.42501C9.12428 10.7308 7.78828 12.1446 5.99984 13.6663Z" fill="#303030"/>
</svg>
