<svg width="16" height="16" viewBox="0 0 16 16" fill="none" xmlns="http://www.w3.org/2000/svg">
<path d="M4.66732 12V4.70133C4.66727 4.54622 4.71875 4.39548 4.81366 4.27279C4.90858 4.1501 5.04156 4.06242 5.19172 4.0235C5.34187 3.98459 5.5007 3.99666 5.64326 4.0578C5.78581 4.11895 5.90402 4.22572 5.97932 4.36133L10.022 11.6387C10.0973 11.7743 10.2155 11.881 10.358 11.9422C10.5006 12.0033 10.6594 12.0154 10.8096 11.9765C10.9597 11.9376 11.0927 11.8499 11.1876 11.7272C11.2826 11.6045 11.334 11.4538 11.334 11.2987V4M3.33398 6.66667H12.6673M3.33398 9.33333H12.6673" stroke="#303030" stroke-opacity="0.97" stroke-width="2" stroke-linecap="round" stroke-linejoin="round"/>
</svg>
