<svg width="361" height="361" viewBox="0 0 361 361" fill="none" xmlns="http://www.w3.org/2000/svg">
<path d="M337.909 93.7467C353.651 122.201 361.389 154.388 360.304 186.889C359.218 219.389 349.349 250.988 331.744 278.328C314.139 305.669 289.456 327.73 260.318 342.167C231.181 356.604 198.676 362.878 166.258 360.323C133.841 357.767 102.721 346.477 76.2049 327.653C49.6892 308.829 28.7682 283.173 15.6647 253.411C2.56126 223.65 -2.23515 190.895 1.78509 158.626C5.80532 126.357 18.492 95.78 38.4973 70.1435L82.3954 104.399C68.5787 122.105 59.8166 143.223 57.04 165.51C54.2634 187.797 57.576 210.419 66.626 230.974C75.676 251.529 90.1252 269.248 108.438 282.249C126.752 295.25 148.245 303.048 170.634 304.813C193.024 306.578 215.473 302.244 235.597 292.273C255.722 282.302 272.769 267.066 284.928 248.183C297.087 229.3 303.903 207.476 304.653 185.03C305.403 162.583 300.058 140.353 289.186 120.701L337.909 93.7467Z" fill="#D9D9D9" fill-opacity="0.09"/>
<path d="M51.9087 306.784C26.5614 281.01 9.56194 248.201 3.12385 212.63C-3.31424 177.058 1.10737 140.372 15.8129 107.349C30.5185 74.3254 54.8266 46.4951 85.5719 27.4815C116.317 8.46803 152.075 -0.847602 188.19 0.747676C224.304 2.34295 259.101 14.7752 288.05 36.4256C316.999 58.076 338.759 87.9413 350.495 122.133C362.232 156.324 363.402 193.257 353.852 228.122C344.303 262.988 324.476 294.17 296.955 317.609L238.689 249.194C252.471 237.457 262.399 221.842 267.181 204.383C271.963 186.924 271.377 168.43 265.5 151.308C259.623 134.187 248.726 119.231 234.23 108.39C219.733 97.5481 202.308 91.3226 184.224 90.5237C166.139 89.7249 148.233 94.3897 132.837 103.911C117.441 113.432 105.269 127.368 97.9049 143.905C90.541 160.442 88.3269 178.812 91.5508 196.625C94.7747 214.438 103.287 230.867 115.98 243.774L51.9087 306.784Z" fill="#00345B"/>
</svg>
