<svg width="1211" height="787" viewBox="0 0 1211 787" fill="none" xmlns="http://www.w3.org/2000/svg">
<g clip-path="url(#clip0_3183_35038)">
<path d="M38.3765 603.53C44.3775 542.277 80.6476 481.133 138.358 459.746C117.033 523.187 118.835 592.127 143.446 654.367C153.024 678.337 166.174 703.999 158.393 728.61C153.553 743.925 141.045 755.871 126.915 763.505C112.784 771.139 96.9818 775.014 81.3767 778.815L78.3547 781.45C51.9747 725.844 32.3756 664.783 38.3765 603.53Z" fill="#F0F0F0"/>
<path d="M138.968 460.886C106.384 499.345 85.8754 548.463 82.2897 598.817C81.5144 609.704 81.6755 620.815 84.3283 631.456C86.9937 641.809 92.3828 651.259 99.9357 658.825C106.836 666.02 114.728 672.582 119.759 681.329C125.063 690.55 125.534 701.171 122.329 711.196C118.408 723.461 110.314 733.586 102.055 743.212C92.884 753.901 83.1892 764.857 79.5362 778.805C79.0936 780.495 76.4971 779.709 76.9391 778.022C83.2947 753.755 106.318 739.465 116.903 717.481C121.841 707.223 123.719 695.414 118.563 684.856C114.054 675.624 105.922 668.851 98.8717 661.625C91.4691 654.039 85.7263 645.653 82.614 635.434C79.4303 624.98 78.8345 613.852 79.328 602.993C80.6307 578.379 85.7956 554.122 94.6333 531.111C104.574 504.794 118.944 480.371 137.12 458.899C138.246 457.57 140.086 459.566 138.968 460.886L138.968 460.886Z" fill="white"/>
<path d="M82.5893 582.389C74.1572 580.574 66.645 575.82 61.3944 568.976C56.1439 562.133 53.4968 553.646 53.9259 545.031C53.9466 544.68 54.1028 544.351 54.3616 544.113C54.6205 543.874 54.9617 543.746 55.3134 543.754C55.6651 543.763 55.9998 543.907 56.2469 544.158C56.4941 544.408 56.6345 544.744 56.6384 545.096C56.224 553.118 58.6905 561.023 63.5928 567.385C68.4952 573.748 75.5104 578.148 83.3724 579.792C85.0804 580.152 84.2876 582.747 82.5893 582.389Z" fill="white"/>
<path d="M95.9539 655.639C110.852 646.208 121.648 631.509 126.19 614.471C126.638 612.783 129.235 613.568 128.787 615.254C124.028 632.975 112.761 648.249 97.2366 658.029C95.7562 658.96 94.4815 656.565 95.9539 655.639Z" fill="white"/>
<path d="M107.156 507.297C110.272 508.679 113.682 509.266 117.081 509.005C120.481 508.743 123.761 507.641 126.629 505.799C128.097 504.849 129.37 507.245 127.912 508.189C124.734 510.21 121.109 511.422 117.354 511.719C113.6 512.017 109.829 511.39 106.372 509.894C106.035 509.78 105.753 509.542 105.585 509.228C105.416 508.914 105.374 508.548 105.465 508.204C105.571 507.86 105.807 507.573 106.124 507.403C106.44 507.233 106.811 507.195 107.155 507.297H107.156Z" fill="white"/>
<path d="M318.688 564.17C317.789 564.789 316.889 565.408 315.989 566.05C303.936 574.434 292.584 583.782 282.046 594.004C281.218 594.782 280.392 595.582 279.588 596.381C254.461 621.279 234.174 650.625 219.76 682.928C214.036 695.788 209.298 709.064 205.588 722.642C200.466 741.395 196.404 762.134 185.701 777.643C184.603 779.273 183.404 780.834 182.113 782.317L81.8041 784.932C81.5731 784.824 81.3417 784.738 81.1096 784.63L77.1094 784.917C77.2518 784.203 77.4149 783.466 77.5573 782.753C77.6382 782.338 77.7414 781.923 77.8223 781.509C77.8833 781.233 77.9455 780.956 77.9847 780.703C78.0046 780.611 78.0257 780.519 78.0463 780.45C78.0855 780.197 78.1488 779.966 78.1887 779.736C79.0887 775.613 80.0193 771.49 80.9804 767.365C80.9798 767.342 80.9798 767.342 81.0015 767.319C88.405 735.911 98.4956 704.846 112.98 676.3C113.417 675.441 113.851 674.559 114.333 673.699C120.933 660.868 128.572 648.598 137.171 637.012C141.9 630.682 146.947 624.596 152.292 618.777C166.13 603.768 182.244 591.029 200.041 581.028C235.523 561.094 276.984 552.731 315.736 563.331C316.727 563.603 317.697 563.876 318.688 564.17Z" fill="#F0F0F0"/>
<path d="M318.496 565.449C269.325 576.539 223.378 603.409 190.198 641.455C183.024 649.681 176.463 658.649 172.175 668.743C168.07 678.614 166.683 689.404 168.159 699.992C169.336 709.892 171.687 719.882 170.437 729.896C169.12 740.451 163.102 749.215 154.508 755.29C143.993 762.722 131.434 765.933 119.043 768.647C105.286 771.659 90.9487 774.57 79.6343 783.508C78.2634 784.591 76.6633 782.4 78.0322 781.319C97.7173 765.769 124.704 768.221 146.391 757.041C156.51 751.824 165.119 743.526 167.359 731.991C169.317 721.905 166.902 711.601 165.623 701.587C164.28 691.073 164.744 680.92 168.411 670.887C172.163 660.623 178.387 651.379 185.319 643.007C201.179 624.137 219.907 607.879 240.817 594.828C264.6 579.8 290.777 568.951 318.218 562.75C319.916 562.367 320.184 565.068 318.496 565.449H318.496Z" fill="white"/>
<path d="M200.331 628.522C194.692 621.995 191.556 613.676 191.484 605.051C191.412 596.426 194.408 588.056 199.937 581.436C201.06 580.1 203.189 581.783 202.064 583.121C196.903 589.276 194.113 597.073 194.197 605.104C194.281 613.136 197.233 620.873 202.52 626.919C203.667 628.235 201.472 629.829 200.331 628.522Z" fill="white"/>
<path d="M166.901 695.052C184.474 696.492 201.944 691.255 215.828 680.386C217.203 679.308 218.803 681.498 217.43 682.575C202.961 693.859 184.77 699.271 166.486 697.733C164.743 697.585 165.168 694.905 166.901 695.052H166.901Z" fill="white"/>
<path d="M265.154 583.353C266.81 586.333 269.18 588.855 272.051 590.693C274.923 592.531 278.206 593.626 281.605 593.882C283.349 594.007 282.923 596.687 281.19 596.562C277.436 596.263 273.812 595.048 270.635 593.025C267.458 591.002 264.825 588.231 262.965 584.955C262.764 584.661 262.683 584.302 262.737 583.95C262.792 583.598 262.978 583.279 263.259 583.06C263.55 582.849 263.912 582.762 264.267 582.817C264.622 582.872 264.941 583.065 265.154 583.353Z" fill="white"/>
<path d="M907.411 54.6583C905.913 50.236 887.132 35.2036 898.641 32.6769L908.079 45.2612L951.47 1.87109L955.834 6.23513L907.411 54.6583Z" fill="#6C63FF"/>
<path d="M907.411 202.203C905.913 197.781 887.132 182.748 898.641 180.222L908.079 192.806L951.47 149.416L955.834 153.78L907.411 202.203Z" fill="#6C63FF"/>
<path d="M907.411 351.856C905.913 347.433 887.132 332.401 898.641 329.874L908.079 342.458L951.47 299.068L955.834 303.432L907.411 351.856Z" fill="#6C63FF"/>
<path d="M867.456 230.865C874.851 230.865 880.845 224.87 880.845 217.475C880.845 210.081 874.851 204.086 867.456 204.086C860.061 204.086 854.066 210.081 854.066 217.475C854.066 224.87 860.061 230.865 867.456 230.865Z" fill="#3F3D56"/>
<path d="M867.456 84.9197C874.851 84.9197 880.845 78.925 880.845 71.5301C880.845 64.1353 874.851 58.1406 867.456 58.1406C860.061 58.1406 854.066 64.1353 854.066 71.5301C854.066 78.925 860.061 84.9197 867.456 84.9197Z" fill="#3F3D56"/>
<path d="M1210.9 40.7344H995.324V43.4123H1210.9V40.7344Z" fill="#3F3D56"/>
<path d="M874.149 386.443C881.544 386.443 887.539 380.448 887.539 373.054C887.539 365.659 881.544 359.664 874.149 359.664C866.754 359.664 860.76 365.659 860.76 373.054C860.76 380.448 866.754 386.443 874.149 386.443Z" fill="#3F3D56"/>
<path d="M1210.9 188.279H995.324V190.957H1210.9V188.279Z" fill="#3F3D56"/>
<path d="M1210.9 337.932H995.324V340.61H1210.9V337.932Z" fill="#3F3D56"/>
<path d="M941.229 371.806H874.281V303.52H919.806V306.197H876.959V369.128H938.551V338.332H941.229V371.806Z" fill="#3F3D56"/>
<path d="M941.229 221.843H874.281V153.557H919.806V156.235H876.959V219.165H938.551V188.369H941.229V221.843Z" fill="#3F3D56"/>
<path d="M941.229 69.2026H874.281V0.916016H919.806V3.59392H876.959V66.5247H938.551V35.7288H941.229V69.2026Z" fill="#3F3D56"/>
<path d="M504.122 244.301C504.122 244.301 486.229 319.846 508.098 319.846C529.966 319.846 581.655 234.361 581.655 234.361L563.763 212.492L531.648 257.079L529.966 234.361L504.122 244.301Z" fill="#A0616A"/>
<path d="M576.887 237.645C586.5 237.645 594.293 229.852 594.293 220.238C594.293 210.625 586.5 202.832 576.887 202.832C567.274 202.832 559.48 210.625 559.48 220.238C559.48 229.852 567.274 237.645 576.887 237.645Z" fill="#A0616A"/>
<path d="M488.953 758.828L512.121 758.827L523.144 669.457L488.947 669.458L488.953 758.828Z" fill="#A0616A"/>
<path d="M488.136 782.997L559.385 782.995V782.094C559.385 774.739 556.463 767.685 551.262 762.485C546.061 757.284 539.008 754.362 531.653 754.362H531.651L518.637 744.488L494.354 754.363L488.135 754.364L488.136 782.997Z" fill="#2F2E41"/>
<path d="M239.725 729.921L260.456 740.266L310.227 665.225L279.629 649.955L239.725 729.921Z" fill="#A0616A"/>
<path d="M228.199 751.183L291.951 782.998L292.353 782.192C295.637 775.611 296.173 767.995 293.842 761.02C291.511 754.044 286.505 748.28 279.924 744.995L279.922 744.994L272.687 730.348L246.55 728.34L240.985 725.562L228.199 751.183Z" fill="#2F2E41"/>
<path d="M763.002 783.086H0V786.086H763.002V783.086Z" fill="#CCCCCC"/>
<path d="M339.154 381.35C339.154 381.35 329.894 492.682 327.906 516.538C326.543 531.493 323.201 546.2 317.966 560.275C317.966 560.275 313.99 568.227 313.99 576.179L268.928 658.075C268.928 658.075 255.158 668.197 257.146 676.149C259.134 684.101 248.844 688.871 248.844 688.871L296.298 698.017C296.298 698.017 294.31 692.053 300.274 690.065C306.239 688.077 310.986 670.834 310.986 670.834L377.607 562.263L425.32 462.862C425.32 462.862 453.152 552.323 459.117 562.263C459.117 562.263 480.985 673.593 484.961 683.533C488.937 693.474 490.925 693.473 488.937 697.45C486.949 701.426 486.949 705.402 488.937 707.39C490.925 709.378 528.698 707.39 528.698 707.39L518.758 566.239L500.865 397.256L409.416 369.424L339.154 381.35Z" fill="#2F2E41"/>
<path d="M428.688 115.574C451.745 115.574 470.437 96.882 470.437 73.8249C470.437 50.7677 451.745 32.0762 428.688 32.0762C405.631 32.0762 386.939 50.7677 386.939 73.8249C386.939 96.882 405.631 115.574 428.688 115.574Z" fill="#A0616A"/>
<path d="M504.842 176.586L455.143 146.475C455.143 146.475 453.765 127.777 439.605 126.897C432.496 126.456 421.827 125.78 405.817 124.748C402.434 124.53 400.15 143.041 396.273 142.79L343.812 156.706L351.764 291.892C351.764 291.892 339.836 345.569 343.812 355.51C347.788 365.45 333.871 369.426 337.847 371.414C341.823 373.402 337.847 387.318 337.847 387.318C337.847 387.318 415.381 427.079 500.866 397.258L492.914 371.414C493.996 368.035 494.199 364.437 493.503 360.958C492.808 357.479 491.236 354.236 488.938 351.533C488.938 351.533 496.89 339.605 486.95 329.665C486.95 329.665 490.926 311.773 480.986 303.821L478.998 275.988L484.962 262.072L504.842 176.586Z" fill="#E6E6E6"/>
<path d="M392.46 97.6742L391.293 94.9637C391.143 94.6132 376.379 59.7103 389.465 38.1811C395.523 28.2142 406.539 22.587 422.205 21.4573C446.717 19.6849 463.494 25.4996 472.082 38.7277C473.522 40.9696 474.332 43.5581 474.425 46.2209C474.519 48.8838 473.893 51.5227 472.614 53.8603C471.335 56.1978 469.45 58.1475 467.157 59.5045C464.864 60.8614 462.248 61.5755 459.583 61.5715H459.254L454.75 55.7235L454.488 56.2922C452.857 59.8201 449.112 61.7513 444.726 61.3283C443.98 61.2748 443.319 61.9187 442.788 63.2969C442.61 63.8998 442.272 64.4434 441.811 64.8708C441.35 65.2982 440.782 65.5935 440.167 65.7258C436.926 66.3567 432.307 62.2744 430.239 60.2398C430.159 60.7081 429.98 61.1538 429.713 61.5468C429.446 61.9397 429.098 62.2708 428.692 62.5176C426.513 63.7749 423.122 62.1326 422.148 61.6095C414.394 63.2571 409.374 62.8164 407.224 60.3013C405.766 70.6161 402.637 89.1822 398.885 90.2113C398.492 90.3015 398.082 90.2632 397.713 90.102C397.344 89.9408 397.037 89.6654 396.837 89.3163C395.933 88.1434 395.126 87.5589 394.622 87.723C393.401 88.1113 392.681 92.1308 392.578 94.725L392.46 97.6742Z" fill="#2F2E41"/>
<path d="M482.972 178.572L502.804 175.35C517.09 189.076 526.821 206.854 530.685 226.284C536.649 258.093 538.637 264.057 538.637 264.057L490.925 275.985L465.08 226.284L482.972 178.572Z" fill="#E6E6E6"/>
<path d="M394.974 219.945L382.719 375.309L695.478 399.98L707.733 244.616L394.974 219.945Z" fill="white"/>
<path d="M428.386 231.984C420.733 226.518 411.015 226.123 407.303 226.201C408.435 229.736 411.955 238.803 419.608 244.271C427.281 249.751 436.987 250.134 440.693 250.058C439.561 246.524 436.041 237.453 428.386 231.984Z" fill="#6C63FF"/>
<path d="M458.583 330.842L408.363 326.881C406.879 326.764 405.386 326.94 403.971 327.4C402.555 327.86 401.244 328.594 400.112 329.56C398.98 330.527 398.049 331.707 397.373 333.033C396.697 334.359 396.289 335.805 396.172 337.289C396.055 338.773 396.231 340.265 396.691 341.681C397.151 343.097 397.885 344.408 398.851 345.54C399.818 346.672 400.998 347.603 402.324 348.279C403.65 348.955 405.096 349.363 406.58 349.48L456.8 353.441C459.797 353.678 462.765 352.714 465.051 350.762C467.337 348.81 468.755 346.03 468.991 343.033C469.227 340.036 468.264 337.068 466.312 334.782C464.36 332.496 461.58 331.079 458.583 330.842Z" fill="#6C63FF"/>
<path d="M695.403 229.515L413.835 207.302C410.56 207.044 407.266 207.434 404.142 208.449C401.018 209.464 398.124 211.084 395.626 213.218C393.128 215.351 391.074 217.956 389.583 220.883C388.091 223.81 387.191 227.002 386.933 230.277L376.105 367.454C375.584 374.07 377.712 380.622 382.021 385.669C386.33 390.716 392.467 393.845 399.083 394.369L680.651 416.582C683.926 416.84 687.22 416.45 690.344 415.435C693.469 414.42 696.363 412.799 698.861 410.666C701.359 408.532 703.412 405.928 704.904 403.001C706.395 400.074 707.295 396.882 707.553 393.607L717.844 263.226L718.051 260.562L718.378 256.417C718.636 253.142 718.247 249.848 717.232 246.724C716.217 243.599 714.596 240.706 712.463 238.207C710.329 235.709 707.724 233.656 704.797 232.165C701.87 230.673 698.678 229.773 695.403 229.515ZM687.089 348.866L685.305 371.466C684.979 375.457 683.085 379.157 680.039 381.757C676.992 384.357 673.041 385.644 669.048 385.339L631.378 382.37C627.387 382.044 623.687 380.151 621.087 377.105C618.488 374.058 617.2 370.107 617.506 366.113L619.29 343.514C619.617 339.523 621.511 335.824 624.557 333.224C627.603 330.625 631.554 329.337 635.547 329.641L673.203 332.613C677.195 332.94 680.894 334.833 683.496 337.878C686.097 340.923 687.389 344.873 687.089 348.866ZM393.679 337.082C393.972 333.425 395.703 330.033 398.492 327.651C401.282 325.269 404.903 324.09 408.561 324.374L458.779 328.338C460.593 328.478 462.362 328.974 463.984 329.798C465.606 330.622 467.05 331.758 468.233 333.14C469.417 334.522 470.316 336.124 470.88 337.854C471.443 339.584 471.661 341.408 471.519 343.222C471.378 345.036 470.88 346.804 470.055 348.426C469.23 350.048 468.093 351.491 466.71 352.673C465.327 353.855 463.724 354.753 461.994 355.315C460.263 355.877 458.439 356.093 456.625 355.95L456.599 355.957L406.381 351.993C404.567 351.849 402.8 351.35 401.179 350.522C399.559 349.695 398.118 348.557 396.938 347.172C395.758 345.787 394.863 344.183 394.304 342.451C393.745 340.72 393.533 338.895 393.679 337.082ZM404.43 225.304L404.087 223.899L405.532 223.767C406.096 223.706 419.455 222.507 429.853 229.935C440.252 237.363 443.441 250.395 443.579 250.94L443.91 252.348L442.468 252.494C440.423 252.646 438.368 252.632 436.324 252.453C429.823 252.072 423.544 249.952 418.143 246.313C407.745 238.885 404.556 225.852 404.43 225.304Z" fill="#00345B"/>
<path d="M644.843 363.855L628.522 362.568C627.358 362.478 626.206 362.854 625.318 363.613C624.431 364.372 623.881 365.452 623.789 366.616C623.697 367.78 624.071 368.933 624.828 369.822C625.586 370.71 626.665 371.262 627.829 371.356L644.15 372.644C645.314 372.734 646.467 372.358 647.354 371.599C648.242 370.84 648.792 369.76 648.884 368.596C648.975 367.431 648.601 366.278 647.844 365.39C647.087 364.501 646.007 363.949 644.843 363.855Z" fill="#6C63FF"/>
<path d="M674.975 366.23L658.654 364.943C657.49 364.854 656.339 365.23 655.452 365.989C654.565 366.748 654.016 367.827 653.924 368.991C653.832 370.155 654.205 371.307 654.962 372.196C655.719 373.084 656.797 373.636 657.961 373.731L674.282 375.019C675.446 375.107 676.597 374.731 677.484 373.972C678.371 373.213 678.92 372.134 679.012 370.97C679.104 369.807 678.73 368.654 677.974 367.765C677.217 366.877 676.139 366.325 674.975 366.23Z" fill="#6C63FF"/>
<path d="M645.733 352.554L629.412 351.267C628.248 351.178 627.096 351.554 626.21 352.313C625.323 353.072 624.773 354.152 624.682 355.315C624.59 356.479 624.963 357.631 625.72 358.52C626.477 359.408 627.555 359.961 628.718 360.055L645.04 361.343C646.204 361.433 647.357 361.057 648.244 360.298C649.131 359.539 649.681 358.459 649.773 357.295C649.865 356.13 649.491 354.977 648.734 354.089C647.976 353.2 646.897 352.648 645.733 352.554Z" fill="#6C63FF"/>
<path d="M675.867 354.933L659.545 353.646C658.381 353.556 657.229 353.932 656.342 354.691C655.454 355.45 654.904 356.53 654.812 357.694C654.721 358.858 655.094 360.011 655.852 360.9C656.609 361.789 657.688 362.34 658.852 362.434L675.174 363.722C676.338 363.812 677.49 363.436 678.378 362.677C679.265 361.918 679.815 360.838 679.907 359.674C679.999 358.51 679.625 357.357 678.868 356.468C678.11 355.579 677.031 355.027 675.867 354.933Z" fill="#6C63FF"/>
<path d="M646.625 341.256L630.304 339.968C629.139 339.878 627.987 340.254 627.1 341.013C626.212 341.772 625.662 342.852 625.57 344.016C625.478 345.18 625.852 346.333 626.61 347.222C627.367 348.111 628.446 348.663 629.61 348.757L645.932 350.044C647.096 350.133 648.247 349.757 649.134 348.998C650.021 348.239 650.57 347.159 650.662 345.996C650.754 344.832 650.38 343.68 649.623 342.791C648.867 341.902 647.788 341.35 646.625 341.256Z" fill="#6C63FF"/>
<path d="M676.759 343.632L660.437 342.345C659.273 342.256 658.122 342.632 657.235 343.391C656.348 344.15 655.799 345.23 655.707 346.393C655.615 347.557 655.989 348.709 656.745 349.598C657.502 350.487 658.581 351.039 659.744 351.133L676.065 352.421C677.229 352.51 678.381 352.134 679.267 351.375C680.154 350.616 680.704 349.536 680.796 348.372C680.887 347.209 680.514 346.056 679.757 345.168C679 344.279 677.922 343.727 676.759 343.632Z" fill="#6C63FF"/>
<path d="M382.749 273.56L382.539 276.23L713.063 302.195L713.273 299.524L382.749 273.56Z" fill="white"/>
<path d="M718.05 260.562L717.842 263.226L706.34 262.324L583.781 252.696L584.002 250.029L706.547 259.659L718.05 260.562Z" fill="#3F3D56"/>
<path d="M313.991 232.25C313.991 232.25 296.098 307.795 317.967 307.795C339.835 307.795 391.524 222.31 391.524 222.31L373.632 200.441L341.517 245.028L339.835 222.31L313.991 232.25Z" fill="#A0616A"/>
<path d="M386.756 225.594C396.369 225.594 404.162 217.801 404.162 208.188C404.162 198.574 396.369 190.781 386.756 190.781C377.143 190.781 369.35 198.574 369.35 208.188C369.35 217.801 377.143 225.594 386.756 225.594Z" fill="#A0616A"/>
<path d="M358.293 168.631L346.364 156.703C346.364 156.703 322.508 170.619 320.52 184.536C318.532 198.452 308.592 242.189 308.592 242.189L345.37 245.171L357.299 227.278L358.293 168.631Z" fill="#E6E6E6"/>
</g>
<defs>
<clipPath id="clip0_3183_35038">
<rect width="1210.9" height="785.169" fill="white" transform="translate(0 0.916016)"/>
</clipPath>
</defs>
</svg>
