<svg width="106" height="73" viewBox="0 0 106 73" fill="none" xmlns="http://www.w3.org/2000/svg">
<g clip-path="url(#clip0_3183_34867)">
<path d="M34.2896 36.8137C34.2896 38.5531 32.505 39.8791 30.2422 39.8791C28.5496 39.8791 27.2986 39.1377 27.2986 37.7404C27.2986 36.001 29.0464 34.6037 31.2908 34.6037C33.0018 34.6037 34.2896 35.4164 34.2896 36.8137ZM14.8254 29.8986H13.9607C13.6847 29.8986 13.4088 30.0412 13.372 30.2836L12.5809 34.0904L14.0895 34.0477C16.1132 34.0477 17.6769 33.8338 18.0449 32.023C18.468 30.1125 16.9042 29.8986 14.8254 29.8986ZM67.0733 29.8986H66.2455C65.9143 29.8986 65.6936 30.0412 65.6568 30.2836L64.8841 34.0904L66.3559 34.0477C68.7475 34.0477 70.4032 33.6199 70.4032 31.4812C70.3848 29.9699 68.6371 29.8986 67.0733 29.8986ZM105.983 11.4062V61.5937C105.983 65.3721 102.028 68.4375 97.1527 68.4375H8.84627C3.97102 68.4375 0.015625 65.3721 0.015625 61.5937V11.4062C0.015625 7.62793 3.97102 4.5625 8.84627 4.5625H97.1527C102.028 4.5625 105.983 7.62793 105.983 11.4062ZM23.6192 30.7113C23.6192 27.7172 20.6389 26.7191 17.2354 26.7191H9.87651C9.41658 26.7191 8.95665 27.0043 8.91986 27.3893L5.90272 41.9465C5.84753 42.2316 6.12349 42.5168 6.49143 42.5168H9.9869C10.4836 42.5168 10.9435 42.1033 10.9987 41.7041L11.8266 37.9115C12.0106 36.885 14.255 37.2414 15.1381 37.2414C20.3997 37.2414 23.6192 34.8176 23.6192 30.7113ZM39.1096 31.966H35.6142C34.9151 31.966 34.8783 32.7502 34.8415 33.1352C33.7744 31.9232 32.2291 31.7094 30.4814 31.7094C25.974 31.7094 22.5338 34.7748 22.5338 38.1539C22.5338 40.9342 24.7782 42.7449 28.3657 42.7449C30.0214 42.7449 32.0819 42.0463 33.2409 41.0482C33.1489 41.2621 33.057 41.7184 33.057 41.9322C33.057 42.2602 33.2409 42.5025 33.6457 42.5025H36.81C37.3067 42.5025 37.7298 42.0891 37.8218 41.6898L39.6983 32.5221C39.7535 32.2512 39.4776 31.966 39.1096 31.966ZM46.5605 45.9244L58.2795 32.7217C58.3715 32.6504 58.3715 32.5791 58.3715 32.4793C58.3715 32.2369 58.0955 31.9803 57.7828 31.9803H54.2505C53.9378 31.9803 53.6066 32.1228 53.4226 32.3367L48.5474 37.8973L46.5237 32.5506C46.3765 32.2369 45.9718 31.9803 45.5118 31.9803H42.0716C41.7588 31.9803 41.4829 32.2369 41.4829 32.4793C41.4829 32.6504 45.0703 40.5777 45.3831 41.3334C44.8863 41.8752 41.6116 45.4111 41.6116 45.8389C41.6116 46.0955 41.8876 46.2951 42.2004 46.2951H45.7326C46.0638 46.2809 46.3765 46.1383 46.5605 45.9244ZM75.8672 30.7113C75.8672 27.7172 72.8868 26.7191 69.4834 26.7191H62.1797C61.683 26.7191 61.223 27.0043 61.1678 27.3893L58.1875 41.9322C58.1507 42.2174 58.4267 42.5025 58.7762 42.5025H62.5476C62.9156 42.5025 63.1915 42.2887 63.2835 42.0463L64.1114 37.9115C64.2954 36.885 66.5398 37.2414 67.4229 37.2414C72.6477 37.2414 75.8672 34.8176 75.8672 30.7113ZM91.3576 31.966H87.8622C87.1631 31.966 87.1263 32.7502 87.0711 33.1352C86.0592 31.9232 84.4955 31.7094 82.7109 31.7094C78.2036 31.7094 74.7634 34.7748 74.7634 38.1539C74.7634 40.9342 77.0078 42.7449 80.5953 42.7449C82.3062 42.7449 84.3667 42.0463 85.4705 41.0482C85.4153 41.2621 85.2865 41.7184 85.2865 41.9322C85.2865 42.2602 85.4705 42.5025 85.8753 42.5025H89.058C89.5547 42.5025 89.9778 42.0891 90.0698 41.6898L91.9463 32.5221C92.0015 32.2512 91.7256 31.966 91.3576 31.966ZM100.096 27.2182C100.096 26.933 99.8203 26.7191 99.5076 26.7191H96.1041C95.8281 26.7191 95.5522 26.8902 95.5154 27.1041L92.535 41.9322L92.4798 42.0035C92.4798 42.2602 92.7558 42.5025 93.1237 42.5025H96.1593C96.6192 42.5025 97.0791 42.0891 97.1159 41.6898L100.096 27.2609V27.2182ZM83.5388 34.6037C81.2944 34.6037 79.5466 35.9867 79.5466 37.7404C79.5466 39.1234 80.8344 39.8791 82.527 39.8791C84.7346 39.8791 86.5192 38.5674 86.5192 36.8137C86.5376 35.4164 85.2497 34.6037 83.5388 34.6037Z" fill="#00345B"/>
</g>
<defs>
<clipPath id="clip0_3183_34867">
<rect width="105.968" height="73" fill="white" transform="translate(0.015625)"/>
</clipPath>
</defs>
</svg>
