<svg width="20" height="20" viewBox="0 0 20 20" fill="none" xmlns="http://www.w3.org/2000/svg">
<path d="M7.79906 6.34812C8.35906 6.34812 8.80906 5.89813 8.80906 5.33813C8.80906 4.77813 8.35906 4.32812 7.79906 4.32812C7.23906 4.32812 6.78906 4.77813 6.78906 5.33813C6.78906 5.89813 7.23906 6.34812 7.79906 6.34812Z" fill="white"/>
<path fill-rule="evenodd" clip-rule="evenodd" d="M9.83 8.55141C9.83 7.47141 8.92 6.69141 7.8 6.69141C6.68 6.69141 5.77 7.47141 5.77 8.55141V9.06141C5.77 9.15141 5.81 9.24141 5.87 9.30141C5.93 9.36141 6.02 9.40141 6.11 9.40141H9.49C9.58 9.40141 9.67 9.36141 9.73 9.30141C9.79 9.24141 9.83 9.15141 9.83 9.06141V8.55141ZM5.75 11.5014C5.75 11.3025 5.82902 11.1117 5.96967 10.9711C6.11032 10.8304 6.30109 10.7514 6.5 10.7514H13.5C13.6989 10.7514 13.8897 10.8304 14.0303 10.9711C14.171 11.1117 14.25 11.3025 14.25 11.5014C14.25 11.7003 14.171 11.8911 14.0303 12.0317C13.8897 12.1724 13.6989 12.2514 13.5 12.2514H6.5C6.30109 12.2514 6.11032 12.1724 5.96967 12.0317C5.82902 11.8911 5.75 11.7003 5.75 11.5014ZM5.75 14.5014C5.75 14.3025 5.82902 14.1117 5.96967 13.9711C6.11032 13.8304 6.30109 13.7514 6.5 13.7514H13.5C13.6989 13.7514 13.8897 13.8304 14.0303 13.9711C14.171 14.1117 14.25 14.3025 14.25 14.5014C14.25 14.7003 14.171 14.8911 14.0303 15.0317C13.8897 15.1724 13.6989 15.2514 13.5 15.2514H6.5C6.30109 15.2514 6.11032 15.1724 5.96967 15.0317C5.82902 14.8911 5.75 14.7003 5.75 14.5014Z" fill="white"/>
<path fill-rule="evenodd" clip-rule="evenodd" d="M2.5 2.5C2.5 1.398 3.398 0.5 4.5 0.5H11.19C11.752 0.5 12.282 0.738 12.655 1.131L12.661 1.138L16.973 5.84C17.332 6.223 17.5 6.724 17.5 7.2V17.5C17.5 18.602 16.602 19.5 15.5 19.5H4.5C3.398 19.5 2.5 18.602 2.5 17.5V2.5ZM11.189 2.5H4.5V17.5H15.5V7.192L11.204 2.507L11.201 2.506C11.1974 2.50335 11.1933 2.50133 11.189 2.5Z" fill="white"/>
<path fill-rule="evenodd" clip-rule="evenodd" d="M11.1914 0.5C11.4566 0.5 11.711 0.605357 11.8985 0.792893C12.0861 0.98043 12.1914 1.23478 12.1914 1.5V6.2H16.5014C16.6327 6.2 16.7628 6.22587 16.8841 6.27612C17.0054 6.32638 17.1157 6.40003 17.2085 6.49289C17.3014 6.58575 17.375 6.69599 17.4253 6.81732C17.4755 6.93864 17.5014 7.06868 17.5014 7.2C17.5014 7.33132 17.4755 7.46136 17.4253 7.58268C17.375 7.70401 17.3014 7.81425 17.2085 7.90711C17.1157 7.99997 17.0054 8.07362 16.8841 8.12388C16.7628 8.17413 16.6327 8.2 16.5014 8.2H11.1914C10.9262 8.2 10.6718 8.09464 10.4843 7.90711C10.2968 7.71957 10.1914 7.46522 10.1914 7.2V1.5C10.1914 1.23478 10.2968 0.98043 10.4843 0.792893C10.6718 0.605357 10.9262 0.5 11.1914 0.5Z" fill="white"/>
</svg>
