<svg width="16" height="16" viewBox="0 0 16 16" fill="none" xmlns="http://www.w3.org/2000/svg">
<g clip-path="url(#clip0_3183_34822)">
<path d="M3.542 7.10546V3.51943H7.10288C6.84809 -0.232012 2.85512 -0.77973 1.09938 0.933489C-0.748625 2.73668 -0.477719 6.78583 3.542 7.10546ZM14.9006 0.933489C13.1449 -0.77973 9.15188 -0.232012 8.89713 3.51943H12.458V7.10549C16.4777 6.78586 16.7486 2.73668 14.9006 0.933489ZM1.09938 15.0679C2.85512 16.7811 6.84813 16.2334 7.10288 12.482H3.542V8.8959C-0.477688 9.21552 -0.748625 13.2647 1.09938 15.0679ZM12.458 8.8959V12.4819H8.89713C9.15191 16.2333 13.1449 16.7811 14.9006 15.0678C16.7486 13.2646 16.4777 9.21549 12.458 8.89586V8.8959Z" fill="#00345B"/>
</g>
<defs>
<clipPath id="clip0_3183_34822">
<rect width="16" height="16" fill="white"/>
</clipPath>
</defs>
</svg>
