<svg width="94" height="56" viewBox="0 0 94 56" fill="none" xmlns="http://www.w3.org/2000/svg">
<path fill-rule="evenodd" clip-rule="evenodd" d="M41.8822 27.7614C41.8822 34.8257 36.1558 40.5521 29.0915 40.5521C27.045 40.5521 25.111 40.0712 23.3971 39.2167C22.9443 38.9828 22.4217 38.9223 21.9274 39.0466L19.0802 39.809C18.7984 39.8842 18.5018 39.8839 18.2201 39.8082C17.9384 39.7325 17.6816 39.5841 17.4754 39.3778C17.2692 39.1715 17.1209 38.9146 17.0454 38.6328C16.9699 38.3511 16.9698 38.0544 17.0452 37.7727L17.8063 34.9255C17.93 34.4315 17.8691 33.9093 17.6349 33.4571C16.7544 31.6877 16.2977 29.7377 16.3008 27.7614C16.3008 20.6971 22.0272 14.9707 29.0915 14.9707C36.1558 14.9707 41.8822 20.6971 41.8822 27.7614ZM23.3357 26.6205C23.3357 28.3715 25.0228 30.2083 26.5704 31.5244C27.6231 32.4198 28.1501 32.8687 29.0915 32.8687C30.0329 32.8687 30.5599 32.4211 31.6125 31.5244C33.1602 30.207 34.8473 28.3715 34.8473 26.6205C34.8473 23.1964 31.6816 21.9186 29.0915 24.5637C26.5014 21.9186 23.3357 23.1964 23.3357 26.6205Z" fill="#00345B"/>
<g clip-path="url(#clip0_2610_28290)">
<path d="M64.621 33.2401C70.0705 33.2401 74.4881 28.8224 74.4881 23.373C74.4881 17.9235 70.0705 13.5059 64.621 13.5059C59.1716 13.5059 54.7539 17.9235 54.7539 23.373C54.7539 28.8224 59.1716 33.2401 64.621 33.2401Z" stroke="#00345B" stroke-width="1.27907" stroke-linecap="round" stroke-linejoin="round"/>
<path d="M64.6198 27.7571C67.0417 27.7571 69.0051 25.7937 69.0051 23.3717C69.0051 20.9497 67.0417 18.9863 64.6198 18.9863C62.1978 18.9863 60.2344 20.9497 60.2344 23.3717C60.2344 25.7937 62.1978 27.7571 64.6198 27.7571Z" stroke="#00345B" stroke-width="1.27907" stroke-linecap="round" stroke-linejoin="round"/>
<path d="M62.7141 33.0654L60.7846 41.1783C60.7464 41.3325 60.6758 41.4768 60.5775 41.6016C60.4792 41.7263 60.3554 41.8287 60.2145 41.9019C60.0657 41.9665 59.9052 41.9998 59.743 41.9998C59.5809 41.9998 59.4204 41.9665 59.2716 41.9019L51.9919 38.7225C51.8392 38.6503 51.7048 38.5445 51.5989 38.413C51.4929 38.2814 51.4182 38.1276 51.3802 37.963C51.3422 37.7984 51.342 37.6274 51.3796 37.4627C51.4172 37.298 51.4916 37.144 51.5972 37.0122L57.2324 29.9518M67.0995 32.9558L69.0729 41.1783C69.1122 41.3351 69.1856 41.4813 69.288 41.6064C69.3903 41.7315 69.5191 41.8324 69.665 41.9019C69.8097 41.9673 69.9666 42.0011 70.1254 42.0011C70.2842 42.0011 70.4412 41.9673 70.5859 41.9019L77.8218 38.7225C77.9768 38.6512 78.113 38.5447 78.2196 38.4115C78.3262 38.2782 78.4002 38.122 78.4357 37.9551C78.4773 37.7919 78.4791 37.621 78.4409 37.457C78.4028 37.2929 78.3258 37.1404 78.2165 37.0122L72.3401 29.5352" stroke="#00345B" stroke-width="1.27907" stroke-linecap="round" stroke-linejoin="round"/>
</g>
<defs>
<clipPath id="clip0_2610_28290">
<rect width="30.6977" height="30.6977" fill="white" transform="translate(49.5586 12.4141)"/>
</clipPath>
</defs>
</svg>
