<svg width="33" height="33" viewBox="0 0 33 33" fill="none" xmlns="http://www.w3.org/2000/svg">
<path d="M19.25 27.5H5.5V23.375C5.5 19.6625 12.7875 17.875 16.5 17.875C18.5625 17.875 21.8625 18.425 24.3375 19.6625C23.2375 20.075 22.4125 20.625 21.5875 21.3125C20.075 20.7625 18.2875 20.4875 16.5 20.4875C12.375 20.4875 8.1125 22.55 8.1125 23.375V24.8875H19.525C19.3875 25.4375 19.25 26.125 19.25 26.8125V27.5ZM31.625 26.8125C31.625 29.425 29.425 31.625 26.8125 31.625C24.2 31.625 22 29.425 22 26.8125C22 24.2 24.2 22 26.8125 22C29.425 22 31.625 24.2 31.625 26.8125ZM16.5 8.25C18.0125 8.25 19.25 9.4875 19.25 11C19.25 12.5125 18.0125 13.75 16.5 13.75C14.9875 13.75 13.75 12.5125 13.75 11C13.75 9.4875 14.9875 8.25 16.5 8.25ZM16.5 5.5C13.475 5.5 11 7.975 11 11C11 14.025 13.475 16.5 16.5 16.5C19.525 16.5 22 14.025 22 11C22 7.975 19.525 5.5 16.5 5.5Z" fill="white"/>
</svg>
