<svg width="12" height="12" viewBox="0 0 12 12" fill="none" xmlns="http://www.w3.org/2000/svg">
<path d="M9.33333 10.0003H12V8.66699H9.33333V7.33366L7.33333 9.33366L9.33333 11.3337V10.0003ZM5.33333 0.666992C3.86667 0.666992 2.66667 1.86699 2.66667 3.33366C2.66667 4.80033 3.86667 6.00033 5.33333 6.00033C6.8 6.00033 8 4.80033 8 3.33366C8 1.86699 6.8 0.666992 5.33333 0.666992ZM5.33333 2.00033C6.06667 2.00033 6.66667 2.60033 6.66667 3.33366C6.66667 4.06699 6.06667 4.66699 5.33333 4.66699C4.6 4.66699 4 4.06699 4 3.33366C4 2.60033 4.6 2.00033 5.33333 2.00033ZM5.33333 6.66699C3.53333 6.66699 0 7.53366 0 9.33366V11.3337H6.33333C6.13333 10.9337 6.06667 10.5337 6 10.067H1.26667V9.33366C1.26667 8.93366 3.33333 7.93366 5.33333 7.93366C5.66667 7.93366 6 8.00033 6.33333 8.00033C6.53333 7.60033 6.73333 7.20033 7.06667 6.86699C6.4 6.73366 5.8 6.66699 5.33333 6.66699Z" fill="#303030"/>
</svg>
